<svg width="40" height="40" viewBox="0 0 40 40" fill="none" xmlns="http://www.w3.org/2000/svg">
<path d="M20 20C18.1667 20 16.5972 19.3472 15.2917 18.0417C13.9861 16.7361 13.3334 15.1667 13.3334 13.3333C13.3334 11.5 13.9861 9.93055 15.2917 8.62499C16.5972 7.31943 18.1667 6.66666 20 6.66666C21.8334 6.66666 23.4028 7.31943 24.7084 8.62499C26.0139 9.93055 26.6667 11.5 26.6667 13.3333C26.6667 15.1667 26.0139 16.7361 24.7084 18.0417C23.4028 19.3472 21.8334 20 20 20ZM6.66669 33.3333V28.6667C6.66669 27.7222 6.90974 26.8542 7.39585 26.0625C7.88196 25.2708 8.5278 24.6667 9.33335 24.25C11.0556 23.3889 12.8056 22.743 14.5834 22.3125C16.3611 21.8819 18.1667 21.6667 20 21.6667C21.8334 21.6667 23.6389 21.8819 25.4167 22.3125C27.1945 22.743 28.9445 23.3889 30.6667 24.25C31.4722 24.6667 32.1181 25.2708 32.6042 26.0625C33.0903 26.8542 33.3334 27.7222 33.3334 28.6667V33.3333H6.66669ZM10 30H30V28.6667C30 28.3611 29.9236 28.0833 29.7709 27.8333C29.6181 27.5833 29.4167 27.3889 29.1667 27.25C27.6667 26.5 26.1528 25.9375 24.625 25.5625C23.0972 25.1875 21.5556 25 20 25C18.4445 25 16.9028 25.1875 15.375 25.5625C13.8472 25.9375 12.3334 26.5 10.8334 27.25C10.5834 27.3889 10.382 27.5833 10.2292 27.8333C10.0764 28.0833 10 28.3611 10 28.6667V30ZM20 16.6667C20.9167 16.6667 21.7014 16.3403 22.3542 15.6875C23.007 15.0347 23.3334 14.25 23.3334 13.3333C23.3334 12.4167 23.007 11.6319 22.3542 10.9792C21.7014 10.3264 20.9167 9.99999 20 9.99999C19.0834 9.99999 18.2986 10.3264 17.6459 10.9792C16.9931 11.6319 16.6667 12.4167 16.6667 13.3333C16.6667 14.25 16.9931 15.0347 17.6459 15.6875C18.2986 16.3403 19.0834 16.6667 20 16.6667Z" fill="#1D1B20"/>
</svg>