<svg width="17" height="17" viewBox="0 0 17 17" fill="none" xmlns="http://www.w3.org/2000/svg">
<path d="M8.49996 14.875L7.47288 13.9542C6.28052 12.8799 5.29475 11.9531 4.51558 11.174C3.73642 10.3948 3.11663 9.69826 2.65621 9.08437C2.19579 8.45867 1.87114 7.8861 1.68225 7.36666C1.50517 6.84721 1.41663 6.31596 1.41663 5.77291C1.41663 4.66319 1.7885 3.73645 2.53225 2.9927C3.276 2.24895 4.20274 1.87708 5.31246 1.87708C5.92635 1.87708 6.51072 2.00694 7.06558 2.26666C7.62045 2.52638 8.09857 2.89235 8.49996 3.36458C8.90135 2.89235 9.37947 2.52638 9.93433 2.26666C10.4892 2.00694 11.0736 1.87708 11.6875 1.87708C12.7972 1.87708 13.7239 2.24895 14.4677 2.9927C15.2114 3.73645 15.5833 4.66319 15.5833 5.77291C15.5833 6.31596 15.4888 6.84721 15.3 7.36666C15.1229 7.8861 14.8041 8.45867 14.3437 9.08437C13.8833 9.69826 13.2635 10.3948 12.4843 11.174C11.7052 11.9531 10.7194 12.8799 9.52704 13.9542L8.49996 14.875ZM8.49996 12.9625C9.63329 11.9472 10.5659 11.0795 11.2979 10.3594C12.0298 9.62742 12.6083 8.99583 13.0333 8.46458C13.4583 7.92152 13.7534 7.4434 13.9187 7.0302C14.084 6.6052 14.1666 6.1861 14.1666 5.77291C14.1666 5.06458 13.9305 4.4743 13.4583 4.00208C12.9861 3.52985 12.3958 3.29374 11.6875 3.29374C11.1326 3.29374 10.6191 3.45312 10.1468 3.77187C9.67461 4.07881 9.34996 4.4743 9.17288 4.95833H7.82704C7.64996 4.4743 7.32531 4.07881 6.85308 3.77187C6.38086 3.45312 5.86732 3.29374 5.31246 3.29374C4.60413 3.29374 4.01385 3.52985 3.54163 4.00208C3.0694 4.4743 2.83329 5.06458 2.83329 5.77291C2.83329 6.1861 2.91593 6.6052 3.08121 7.0302C3.24649 7.4434 3.54163 7.92152 3.96663 8.46458C4.39163 8.99583 4.9701 9.62742 5.70204 10.3594C6.43399 11.0795 7.36663 11.9472 8.49996 12.9625Z" fill="#1D1B20"/>
</svg>
