<svg width="51" height="21" viewBox="0 0 51 21" fill="none" xmlns="http://www.w3.org/2000/svg">
<g clip-path="url(#clip0_55_653)">
<rect width="50.2105" height="21" rx="10.5" fill="#FF6479"/>
<path d="M12.7312 14.331H24.3922V15.137H12.7312V14.331ZM12.7962 5.894H24.3142V6.7H12.7962V5.894ZM13.6932 12.433H23.5602V13.213H13.6932V12.433ZM18.0092 4.581H18.9842V14.721H18.0092V4.581ZM22.5332 3.658L23.0532 4.412C20.7262 4.841 17.0212 5.062 13.9792 5.127C13.9792 4.893 13.8622 4.555 13.7712 4.347C16.8002 4.269 20.4792 4.035 22.5332 3.658ZM15.0582 9.82V10.821H22.0912V9.82H15.0582ZM15.0582 8.182V9.17H22.0912V8.182H15.0582ZM14.1092 7.48H23.0792V11.523H14.1092V7.48ZM25.7402 10.691H37.5702V11.51H25.7402V10.691ZM26.0522 4.152H37.2452V5.01H26.0522V4.152ZM30.2512 9.326L31.2002 9.586C30.3552 10.938 29.1592 12.641 28.3272 13.707L27.4042 13.395C28.2362 12.342 29.4452 10.6 30.2512 9.326ZM34.1512 10.977L35.0872 11.25C33.9432 14.11 31.1742 15.176 26.2992 15.54C26.2342 15.254 26.0782 14.903 25.9222 14.682C30.5632 14.435 33.1112 13.512 34.1512 10.977ZM28.1062 13.265L28.6002 12.55C31.8112 13.122 35.1522 13.993 37.1672 14.786L36.5822 15.579C34.5932 14.76 31.4082 13.876 28.1062 13.265ZM29.6012 4.477H30.5242V9.014H29.6012V4.477ZM32.6302 4.477H33.5532V9.014H32.6302V4.477ZM27.6122 6.921V8.689H35.7242V6.921H27.6122ZM26.7022 6.128H36.6992V9.495H26.7022V6.128Z" fill="white"/>
</g>
<defs>
<clipPath id="clip0_55_653">
<rect width="50.2105" height="21" rx="10.5" fill="white"/>
</clipPath>
</defs>
</svg>
