<svg width="20" height="20" viewBox="0 0 20 20" fill="none" xmlns="http://www.w3.org/2000/svg">
<path d="M9.63171 10.8333C10.0677 10.8333 10.4212 10.4602 10.4212 9.99999C10.4212 9.53975 10.0677 9.16666 9.63171 9.16666C9.19569 9.16666 8.84223 9.53975 8.84223 9.99999C8.84223 10.4602 9.19569 10.8333 9.63171 10.8333Z" stroke="#1E1E1E" stroke-width="2" stroke-linecap="round" stroke-linejoin="round"/>
<path d="M15.158 10.8333C15.594 10.8333 15.9475 10.4602 15.9475 9.99999C15.9475 9.53975 15.594 9.16666 15.158 9.16666C14.722 9.16666 14.3685 9.53975 14.3685 9.99999C14.3685 10.4602 14.722 10.8333 15.158 10.8333Z" stroke="#1E1E1E" stroke-width="2" stroke-linecap="round" stroke-linejoin="round"/>
<path d="M4.10539 10.8333C4.54141 10.8333 4.89487 10.4602 4.89487 9.99999C4.89487 9.53975 4.54141 9.16666 4.10539 9.16666C3.66938 9.16666 3.31592 9.53975 3.31592 9.99999C3.31592 10.4602 3.66938 10.8333 4.10539 10.8333Z" stroke="#1E1E1E" stroke-width="2" stroke-linecap="round" stroke-linejoin="round"/>
</svg>
