<svg width="40" height="40" viewBox="0 0 39 40" fill="none" xmlns="http://www.w3.org/2000/svg">
<rect x="0.842041" width="37.8947" height="40" rx="18.9474" fill="#EADDFF"/>
<path fill-rule="evenodd" clip-rule="evenodd" d="M25.4738 16C25.4738 19.3137 22.9289 22 19.7896 22C16.6503 22 14.1054 19.3137 14.1054 16C14.1054 12.6863 16.6503 10 19.7896 10C22.9289 10 25.4738 12.6863 25.4738 16ZM23.579 16C23.579 18.2091 21.8824 20 19.7896 20C17.6967 20 16.0001 18.2091 16.0001 16C16.0001 13.7909 17.6967 12 19.7896 12C21.8824 12 23.579 13.7909 23.579 16Z" fill="#4F378A"/>
<path d="M19.7896 25C13.6559 25 8.42993 28.8284 6.43921 34.192C6.92416 34.7004 7.43502 35.1812 7.96952 35.6321C9.45191 30.7077 14.1022 27 19.7896 27C25.4769 27 30.1272 30.7077 31.6096 35.6321C32.1441 35.1812 32.655 34.7004 33.1399 34.1921C31.1492 28.8284 25.9232 25 19.7896 25Z" fill="#4F378A"/>
</svg>
