<svg width="20" height="20" viewBox="0 0 20 20" fill="none" xmlns="http://www.w3.org/2000/svg">
<path d="M15 18.3333C14.3056 18.3333 13.7153 18.0903 13.2292 17.6042C12.7431 17.1181 12.5 16.5278 12.5 15.8333C12.5 15.7361 12.5069 15.6354 12.5208 15.5313C12.5347 15.4271 12.5556 15.3333 12.5833 15.25L6.70833 11.8333C6.47222 12.0417 6.20833 12.2049 5.91667 12.3229C5.625 12.441 5.31944 12.5 5 12.5C4.30556 12.5 3.71528 12.257 3.22917 11.7708C2.74306 11.2847 2.5 10.6945 2.5 10C2.5 9.30556 2.74306 8.71528 3.22917 8.22917C3.71528 7.74306 4.30556 7.50001 5 7.50001C5.31944 7.50001 5.625 7.55903 5.91667 7.67709C6.20833 7.79514 6.47222 7.95834 6.70833 8.16667L12.5833 4.75001C12.5556 4.66667 12.5347 4.57292 12.5208 4.46876C12.5069 4.36459 12.5 4.26389 12.5 4.16667C12.5 3.47223 12.7431 2.88195 13.2292 2.39584C13.7153 1.90973 14.3056 1.66667 15 1.66667C15.6944 1.66667 16.2847 1.90973 16.7708 2.39584C17.2569 2.88195 17.5 3.47223 17.5 4.16667C17.5 4.86112 17.2569 5.45139 16.7708 5.93751C16.2847 6.42362 15.6944 6.66667 15 6.66667C14.6806 6.66667 14.375 6.60764 14.0833 6.48959C13.7917 6.37153 13.5278 6.20834 13.2917 6.00001L7.41667 9.41667C7.44444 9.50001 7.46528 9.59376 7.47917 9.69792C7.49306 9.80209 7.5 9.90278 7.5 10C7.5 10.0972 7.49306 10.1979 7.47917 10.3021C7.46528 10.4063 7.44444 10.5 7.41667 10.5833L13.2917 14C13.5278 13.7917 13.7917 13.6285 14.0833 13.5104C14.375 13.3924 14.6806 13.3333 15 13.3333C15.6944 13.3333 16.2847 13.5764 16.7708 14.0625C17.2569 14.5486 17.5 15.1389 17.5 15.8333C17.5 16.5278 17.2569 17.1181 16.7708 17.6042C16.2847 18.0903 15.6944 18.3333 15 18.3333ZM15 5.00001C15.2361 5.00001 15.434 4.92014 15.5938 4.76042C15.7535 4.6007 15.8333 4.40278 15.8333 4.16667C15.8333 3.93056 15.7535 3.73264 15.5938 3.57292C15.434 3.4132 15.2361 3.33334 15 3.33334C14.7639 3.33334 14.566 3.4132 14.4062 3.57292C14.2465 3.73264 14.1667 3.93056 14.1667 4.16667C14.1667 4.40278 14.2465 4.6007 14.4062 4.76042C14.566 4.92014 14.7639 5.00001 15 5.00001ZM5 10.8333C5.23611 10.8333 5.43403 10.7535 5.59375 10.5938C5.75347 10.434 5.83333 10.2361 5.83333 10C5.83333 9.76389 5.75347 9.56598 5.59375 9.40626C5.43403 9.24653 5.23611 9.16667 5 9.16667C4.76389 9.16667 4.56597 9.24653 4.40625 9.40626C4.24653 9.56598 4.16667 9.76389 4.16667 10C4.16667 10.2361 4.24653 10.434 4.40625 10.5938C4.56597 10.7535 4.76389 10.8333 5 10.8333ZM15 16.6667C15.2361 16.6667 15.434 16.5868 15.5938 16.4271C15.7535 16.2674 15.8333 16.0695 15.8333 15.8333C15.8333 15.5972 15.7535 15.3993 15.5938 15.2396C15.434 15.0799 15.2361 15 15 15C14.7639 15 14.566 15.0799 14.4062 15.2396C14.2465 15.3993 14.1667 15.5972 14.1667 15.8333C14.1667 16.0695 14.2465 16.2674 14.4062 16.4271C14.566 16.5868 14.7639 16.6667 15 16.6667Z" fill="#1D1B20"/>
</svg>
